<?xml version="1.0" encoding="utf-8"?>
<!-- Generator: Adobe Illustrator 24.3.0, SVG Export Plug-In . SVG Version: 6.00 Build 0)  -->
<svg version="1.1" xmlns="http://www.w3.org/2000/svg" xmlns:xlink="http://www.w3.org/1999/xlink" x="0px" y="0px"
	 viewBox="0 0 366.87 185.88" style="enable-background:new 0 0 366.87 185.88;" xml:space="preserve">
<style type="text/css">
	.st0{display:none;}
	.st1{display:inline;}
	.st2{fill:none;stroke:#ED1C24;stroke-width:0.3175;stroke-miterlimit:10;stroke-dasharray:2.1169;}
	.st3{display:inline;fill:none;stroke:#ED1C24;stroke-width:0.3175;stroke-miterlimit:10;stroke-dasharray:2.1169;}
	.st4{display:inline;fill:none;stroke:#ED1C24;stroke-width:0.3;stroke-miterlimit:10;stroke-dasharray:2;}
	.st5{display:inline;fill:none;stroke:#ED1C24;stroke-width:0.3;stroke-miterlimit:10;stroke-dasharray:1.9999;}
	.st6{fill:none;stroke:#ED1C24;stroke-width:0.3;stroke-miterlimit:10;}
	.st7{fill:#ED1C24;}
	.st8{display:inline;fill:#ED1C24;}
	.st9{display:inline;opacity:0.15;fill:#ED1C24;}
	.st10{display:inline;fill:none;stroke:#ED1C24;stroke-width:0.317;stroke-miterlimit:10;stroke-dasharray:2.1132;}
</style>
<g id="Logo">
	<g>
		<path d="M180.01,97.42c0,4.55-2.53,7.79-7.86,7.79c-5.65,0-7.99-3.05-7.99-7.6v-27.8h-11.5v27.41c0,10.85,6.49,17.21,19.48,17.21
			c12.92,0,19.35-6.49,19.35-17.21V69.82h-11.5V97.42z"/>
		<path d="M217.56,79.37c-4.61,0-7.79,1.95-10.26,5.52h-0.2v-4.55h-10.2v33.25h10.59V95.22c0-4.09,2.34-7.01,5.84-7.01
			c3.44,0,5.2,2.4,5.2,5.91v19.48h10.59V91.97C229.12,84.57,224.83,79.37,217.56,79.37z"/>
		<rect x="234.56" y="80.34" width="10.59" height="33.25"/>
		<rect x="234.56" y="67.16" width="10.59" height="8.58"/>
		<path d="M263.8,69.82h-10.33v10.52h-4.42v8.58h4.42v15.91c0,7.14,4.42,9.16,10.59,9.16c2.86,0,4.87-0.26,5.78-0.52v-7.73
			c-0.39,0-1.43,0.07-2.34,0.07c-2.27,0-3.7-0.65-3.7-3.25V88.92h6.04v-8.58h-6.04V69.82z"/>
		<path d="M292.38,94.5c-1.04,3.25-1.95,7.66-1.95,7.66h-0.13c0,0-1.04-4.42-2.08-7.66l-4.48-14.16h-11.17l9.81,25.59
			c1.36,3.51,2.01,5.46,2.01,6.88c0,2.27-1.23,3.51-4.35,3.51h-3.64v8.25h6.88c6.69,0,9.87-2.73,12.53-10.52l11.5-33.71h-10.59
			L292.38,94.5z"/>
		<path d="M91.14,61.91l15.3,8.83c0.55,0.31,0.57,1.17,0,1.48c0,0-18.18,10.5-18.18,10.5c-0.55,0.32-1.2,0.3-1.71,0l-18.18-10.5
			c-0.56-0.3-0.57-1.18,0-1.48l15.29-8.83l0-17.29L44.62,67.16v45.08l0-0.21v0.21l14.97-8.64l0-17.66
			c-0.01-0.63,0.73-1.08,1.28-0.74l18.18,10.5c0.55,0.32,0.86,0.89,0.86,1.48l0,20.99c0.01,0.63-0.73,1.08-1.28,0.74l-15.3-8.83
			l-14.97,8.64l39.04,22.54l39.04-22.54l-14.97-8.64l-15.3,8.83c-0.54,0.33-1.3-0.1-1.28-0.74c0,0,0-20.99,0-20.99
			c0-0.63,0.35-1.19,0.86-1.48l18.18-10.5c0.54-0.33,1.3,0.09,1.28,0.74v17.66l14.97,8.64V67.16L91.14,44.62V61.91z"/>
		<path d="M321.91,82.93c-0.22-0.51-0.52-0.96-0.91-1.35c-0.39-0.39-0.84-0.69-1.35-0.91c-0.51-0.22-1.06-0.33-1.65-0.33
			s-1.14,0.11-1.65,0.33c-0.51,0.22-0.96,0.52-1.35,0.91s-0.69,0.84-0.91,1.35c-0.22,0.51-0.33,1.06-0.33,1.65
			c0,0.59,0.11,1.14,0.33,1.65c0.22,0.51,0.52,0.96,0.91,1.35s0.84,0.69,1.35,0.91c0.51,0.22,1.06,0.33,1.65,0.33
			s1.14-0.11,1.65-0.33c0.51-0.22,0.96-0.52,1.35-0.91c0.39-0.39,0.69-0.84,0.91-1.35c0.22-0.51,0.33-1.06,0.33-1.65
			C322.24,83.99,322.13,83.44,321.91,82.93z M320.79,86.2c-0.29,0.49-0.68,0.88-1.17,1.17c-0.49,0.29-1.03,0.43-1.62,0.43
			c-0.59,0-1.13-0.14-1.62-0.43c-0.49-0.29-0.88-0.68-1.17-1.17c-0.29-0.49-0.43-1.03-0.43-1.62c0-0.59,0.14-1.13,0.43-1.62
			c0.29-0.49,0.68-0.88,1.17-1.17c0.49-0.29,1.03-0.43,1.62-0.43c0.59,0,1.13,0.14,1.62,0.43c0.49,0.29,0.88,0.68,1.17,1.17
			c0.29,0.49,0.43,1.03,0.43,1.62C321.22,85.17,321.08,85.71,320.79,86.2z"/>
		<path d="M319.49,84.55c0.14-0.2,0.21-0.44,0.21-0.73c0-0.28-0.07-0.52-0.2-0.7c-0.13-0.19-0.29-0.32-0.48-0.41
			s-0.36-0.13-0.52-0.13h-1.98v3.91h0.86v-1.33h0.85l0.69,1.33h0.94l-0.81-1.52C319.22,84.86,319.37,84.73,319.49,84.55z
			 M318.55,84.35c-0.14,0.12-0.26,0.17-0.38,0.17h-0.8v-1.31h0.82c0.1,0,0.22,0.04,0.36,0.13c0.14,0.09,0.2,0.25,0.2,0.49
			C318.75,84.06,318.69,84.23,318.55,84.35z"/>
	</g>
</g>
<g id="Guides" class="st0">
	<g class="st1">
		<line class="st2" x1="0" y1="67.16" x2="366.86" y2="67.16"/>
	</g>
	<line class="st3" x1="0" y1="113.6" x2="366.86" y2="113.6"/>
	<line class="st4" x1="44.62" y1="185.88" x2="44.62" y2="0"/>
	<line class="st4" x1="115.19" y1="185.88" x2="115.19" y2="0"/>
	<line class="st5" x1="196.9" y1="185.87" x2="196.9" y2="0"/>
	<line class="st5" x1="229.12" y1="185.87" x2="229.12" y2="0"/>
	<line class="st5" x1="234.56" y1="185.87" x2="234.56" y2="0"/>
	<line class="st4" x1="307.32" y1="185.87" x2="307.32" y2="0"/>
	<line class="st4" x1="313.76" y1="0" x2="313.76" y2="185.87"/>
	<line class="st4" x1="322.25" y1="0" x2="322.25" y2="185.87"/>
	<g class="st1">
		<g>
			<line class="st6" x1="38.63" y1="46.34" x2="38.63" y2="138.41"/>
			<g>
				<rect x="37.65" y="46.19" class="st7" width="1.95" height="0.3"/>
			</g>
			<g>
				<rect x="37.65" y="138.26" class="st7" width="1.95" height="0.3"/>
			</g>
		</g>
	</g>
	<path class="st8" d="M308.39,164.39l0.11,0c0.07-0.01,0.13-0.02,0.17-0.05c0.04-0.02,0.07-0.06,0.09-0.12l0.45-1.64
		c0.01-0.03,0.01-0.05,0.02-0.07c0-0.02,0.01-0.04,0.01-0.05c0-0.04-0.01-0.06-0.04-0.08c-0.03-0.01-0.06-0.02-0.12-0.02l-0.16,0.01
		v-0.05l0.04-0.01c0.03,0,0.11-0.02,0.24-0.05c0.13-0.03,0.22-0.04,0.28-0.06l0.05-0.01l0.03,0l0.02,0.01c0,0.01,0,0.01,0,0.02
		c0,0.01,0,0.01,0,0.02l-0.54,1.99c0,0.01,0,0.02-0.01,0.03c0,0.01,0,0.02,0,0.03c0,0.04,0.02,0.07,0.06,0.08s0.11,0.02,0.23,0.02
		v0.05h-0.93V164.39z"/>
	<path class="st8" d="M310.7,162.26h0.16l-0.84,2.24h-0.16L310.7,162.26z"/>
	<path class="st8" d="M311.01,164.45c-0.1-0.03-0.15-0.09-0.15-0.17c0-0.04,0.01-0.08,0.04-0.1c0.03-0.02,0.06-0.04,0.09-0.04
		c0.04,0,0.11,0.03,0.19,0.09c0.08,0.06,0.16,0.1,0.22,0.1c0.14,0,0.27-0.07,0.39-0.2c0.12-0.13,0.18-0.3,0.18-0.49
		c0-0.22-0.08-0.38-0.25-0.48c-0.09-0.06-0.26-0.11-0.48-0.15v-0.05l0.35-0.73h0.85l-0.08,0.24h-0.76l-0.14,0.29
		c0.24,0.04,0.43,0.12,0.56,0.25c0.13,0.13,0.19,0.3,0.19,0.52c0,0.24-0.1,0.46-0.29,0.66c-0.2,0.19-0.44,0.29-0.72,0.29
		C311.13,164.47,311.07,164.46,311.01,164.45z"/>
	<path class="st8" d="M309.55,166.26c-0.1,0.11-0.18,0.21-0.25,0.3c-0.11,0.16-0.2,0.35-0.27,0.57c-0.06,0.19-0.1,0.38-0.13,0.55
		c-0.02,0.17-0.04,0.32-0.04,0.44c0,0.18,0.01,0.33,0.03,0.45c0.02,0.12,0.06,0.27,0.13,0.46l-0.06,0.02c-0.12-0.2-0.2-0.4-0.25-0.6
		c-0.05-0.2-0.08-0.4-0.08-0.6c0-0.26,0.04-0.5,0.13-0.7c0.13-0.3,0.38-0.61,0.73-0.93L309.55,166.26z"/>
	<path class="st8" d="M309.56,168.88c0.02-0.03,0.05-0.04,0.09-0.04c0.03,0,0.05,0.01,0.07,0.02c0.02,0.01,0.04,0.03,0.06,0.04
		l0.02,0.02c0.01,0.01,0.01,0.01,0.02,0.01s0.02,0,0.03,0c0.05,0,0.14-0.07,0.26-0.21s0.18-0.24,0.18-0.3
		c0-0.06-0.02-0.18-0.06-0.36c-0.04-0.18-0.08-0.33-0.12-0.47c-0.05-0.19-0.1-0.33-0.14-0.39c-0.04-0.07-0.11-0.1-0.19-0.1
		c-0.01,0-0.02,0-0.03,0s-0.04,0-0.08,0.01v-0.05l0.44-0.09l0.03,0c0.03,0,0.08,0.12,0.16,0.37c0.07,0.22,0.11,0.38,0.13,0.48
		l0.07,0.39c0.11-0.19,0.2-0.34,0.25-0.44c0.1-0.2,0.16-0.34,0.16-0.42c0-0.02,0-0.04-0.01-0.05c-0.01-0.02-0.02-0.03-0.05-0.05
		l-0.03-0.01c-0.02-0.01-0.04-0.03-0.06-0.05c-0.02-0.02-0.04-0.06-0.04-0.1c0-0.03,0.01-0.06,0.03-0.08s0.05-0.03,0.1-0.03
		c0.05,0,0.1,0.02,0.13,0.05c0.03,0.03,0.05,0.09,0.05,0.16c0,0.12-0.06,0.3-0.19,0.56c-0.1,0.2-0.21,0.38-0.33,0.57
		c-0.15,0.23-0.28,0.41-0.39,0.53c-0.17,0.2-0.31,0.29-0.43,0.29c-0.04,0-0.08-0.01-0.12-0.04s-0.05-0.06-0.05-0.11
		C309.53,168.93,309.54,168.9,309.56,168.88z"/>
	<path class="st8" d="M311.14,168.98c0.11-0.12,0.2-0.23,0.26-0.31c0.1-0.16,0.19-0.34,0.25-0.55c0.06-0.18,0.1-0.36,0.13-0.53
		s0.04-0.34,0.04-0.49c0-0.19-0.02-0.36-0.05-0.51c-0.03-0.15-0.07-0.27-0.11-0.36l0.06-0.02c0.1,0.17,0.18,0.35,0.24,0.56
		c0.06,0.21,0.09,0.42,0.09,0.63c0,0.24-0.04,0.46-0.11,0.64c-0.13,0.34-0.38,0.67-0.76,0.99L311.14,168.98z"/>
	<path class="st8" d="M229.7,164.39l0.11,0c0.07-0.01,0.13-0.02,0.17-0.05c0.04-0.02,0.07-0.06,0.09-0.12l0.45-1.64
		c0.01-0.03,0.01-0.05,0.02-0.07c0-0.02,0.01-0.04,0.01-0.05c0-0.04-0.01-0.06-0.04-0.08c-0.03-0.01-0.06-0.02-0.12-0.02l-0.16,0.01
		v-0.05l0.04-0.01c0.03,0,0.11-0.02,0.24-0.05c0.13-0.03,0.22-0.04,0.28-0.06l0.05-0.01l0.03,0l0.02,0.01c0,0.01,0,0.01,0,0.02
		c0,0.01,0,0.01,0,0.02l-0.54,1.99c0,0.01,0,0.02-0.01,0.03c0,0.01,0,0.02,0,0.03c0,0.04,0.02,0.07,0.06,0.08s0.11,0.02,0.23,0.02
		v0.05h-0.93V164.39z"/>
	<path class="st8" d="M232.02,162.26h0.16l-0.84,2.24h-0.16L232.02,162.26z"/>
	<path class="st8" d="M230.87,166.26c-0.1,0.11-0.18,0.21-0.25,0.3c-0.11,0.16-0.2,0.35-0.27,0.57c-0.06,0.19-0.1,0.38-0.13,0.55
		c-0.02,0.17-0.04,0.32-0.04,0.44c0,0.18,0.01,0.33,0.03,0.45c0.02,0.12,0.06,0.27,0.13,0.46l-0.06,0.02c-0.12-0.2-0.2-0.4-0.25-0.6
		c-0.05-0.2-0.08-0.4-0.08-0.6c0-0.26,0.04-0.5,0.13-0.7c0.13-0.3,0.38-0.61,0.73-0.93L230.87,166.26z"/>
	<path class="st8" d="M230.87,168.88c0.02-0.03,0.05-0.04,0.09-0.04c0.03,0,0.05,0.01,0.07,0.02c0.02,0.01,0.04,0.03,0.06,0.04
		l0.02,0.02c0.01,0.01,0.01,0.01,0.02,0.01s0.02,0,0.03,0c0.05,0,0.14-0.07,0.26-0.21s0.18-0.24,0.18-0.3
		c0-0.06-0.02-0.18-0.06-0.36c-0.04-0.18-0.08-0.33-0.12-0.47c-0.05-0.19-0.1-0.33-0.14-0.39c-0.04-0.07-0.11-0.1-0.19-0.1
		c-0.01,0-0.02,0-0.03,0s-0.04,0-0.08,0.01v-0.05l0.44-0.09l0.03,0c0.03,0,0.08,0.12,0.16,0.37c0.07,0.22,0.11,0.38,0.13,0.48
		l0.07,0.39c0.11-0.19,0.2-0.34,0.25-0.44c0.1-0.2,0.16-0.34,0.16-0.42c0-0.02,0-0.04-0.01-0.05c-0.01-0.02-0.02-0.03-0.05-0.05
		l-0.03-0.01c-0.02-0.01-0.04-0.03-0.06-0.05c-0.02-0.02-0.04-0.06-0.04-0.1c0-0.03,0.01-0.06,0.03-0.08s0.05-0.03,0.1-0.03
		c0.05,0,0.1,0.02,0.13,0.05c0.03,0.03,0.05,0.09,0.05,0.16c0,0.12-0.06,0.3-0.19,0.56c-0.1,0.2-0.21,0.38-0.33,0.57
		c-0.15,0.23-0.28,0.41-0.39,0.53c-0.17,0.2-0.31,0.29-0.43,0.29c-0.04,0-0.08-0.01-0.12-0.04s-0.05-0.06-0.05-0.11
		C230.84,168.93,230.85,168.9,230.87,168.88z"/>
	<path class="st8" d="M232.46,168.98c0.11-0.12,0.2-0.23,0.26-0.31c0.1-0.16,0.19-0.34,0.25-0.55c0.06-0.18,0.1-0.36,0.13-0.53
		s0.04-0.34,0.04-0.49c0-0.19-0.02-0.36-0.05-0.51c-0.03-0.15-0.07-0.27-0.11-0.36l0.06-0.02c0.1,0.17,0.18,0.35,0.24,0.56
		c0.06,0.21,0.09,0.42,0.09,0.63c0,0.24-0.04,0.46-0.11,0.64c-0.13,0.34-0.38,0.67-0.76,0.99L232.46,168.98z"/>
	<path class="st8" d="M121.47,162.27c-0.1,0.11-0.18,0.21-0.25,0.3c-0.11,0.16-0.2,0.35-0.27,0.57c-0.06,0.19-0.1,0.38-0.13,0.55
		c-0.02,0.17-0.04,0.32-0.04,0.44c0,0.18,0.01,0.33,0.03,0.45c0.02,0.12,0.06,0.27,0.13,0.46l-0.06,0.02c-0.12-0.2-0.2-0.4-0.25-0.6
		c-0.05-0.2-0.08-0.4-0.08-0.6c0-0.26,0.04-0.5,0.13-0.7c0.13-0.3,0.38-0.61,0.73-0.93L121.47,162.27z"/>
	<path class="st8" d="M121.47,164.24c0.03-0.02,0.05-0.03,0.08-0.03c0.01,0,0.03,0,0.04,0.01c0.01,0,0.03,0.01,0.04,0.02l0.06,0.03
		c0.01,0,0.01,0.01,0.02,0.01s0.01,0,0.02,0c0.03,0,0.05-0.01,0.06-0.02s0.05-0.06,0.11-0.14c0.04-0.05,0.13-0.18,0.27-0.39
		c0-0.01-0.01-0.07-0.04-0.17c-0.03-0.11-0.05-0.2-0.07-0.28s-0.04-0.13-0.06-0.15c-0.02-0.02-0.05-0.04-0.09-0.04
		c-0.01,0-0.04,0-0.09,0.02c-0.03,0.01-0.06,0.01-0.09,0.02l-0.01-0.05l0.18-0.06c0.05-0.02,0.09-0.03,0.13-0.04
		c0.04-0.01,0.07-0.01,0.1-0.01c0.05,0,0.08,0.01,0.1,0.04c0.04,0.04,0.06,0.13,0.09,0.26l0.03,0.18c0.1-0.15,0.17-0.25,0.23-0.31
		c0.05-0.05,0.09-0.1,0.14-0.12c0.04-0.03,0.08-0.04,0.12-0.04c0.04,0,0.07,0.01,0.09,0.02c0.04,0.02,0.06,0.06,0.06,0.11
		c0,0.04-0.01,0.07-0.03,0.09s-0.05,0.03-0.08,0.03c-0.01,0-0.02,0-0.03,0c-0.01,0-0.02-0.01-0.03-0.01l-0.04-0.02
		c-0.01-0.01-0.02-0.01-0.03-0.01c-0.01,0-0.02,0-0.02,0c-0.05,0-0.12,0.06-0.2,0.19s-0.13,0.2-0.13,0.22
		c0,0.02,0.01,0.07,0.03,0.16c0.02,0.09,0.04,0.18,0.07,0.28c0.02,0.09,0.04,0.16,0.06,0.19c0.02,0.06,0.05,0.09,0.08,0.09
		c0.03,0,0.06-0.02,0.09-0.05s0.08-0.09,0.14-0.17l0.04,0.03c-0.05,0.08-0.09,0.16-0.14,0.22c-0.09,0.11-0.18,0.17-0.27,0.17
		c-0.05,0-0.1-0.03-0.13-0.08c-0.02-0.03-0.04-0.08-0.05-0.15l-0.1-0.4l-0.33,0.44c-0.07,0.08-0.12,0.13-0.15,0.15
		c-0.04,0.03-0.08,0.04-0.13,0.04c-0.07,0-0.12-0.02-0.14-0.07c-0.01-0.02-0.02-0.05-0.02-0.08
		C121.44,164.29,121.45,164.26,121.47,164.24z"/>
	<path class="st8" d="M123.06,164.99c0.11-0.12,0.2-0.23,0.26-0.31c0.1-0.16,0.19-0.34,0.25-0.55c0.06-0.18,0.1-0.36,0.13-0.53
		s0.04-0.34,0.04-0.49c0-0.19-0.02-0.36-0.05-0.51c-0.03-0.15-0.07-0.27-0.11-0.36l0.06-0.02c0.1,0.17,0.18,0.35,0.24,0.56
		c0.06,0.21,0.09,0.42,0.09,0.63c0,0.24-0.04,0.46-0.11,0.64c-0.13,0.34-0.38,0.67-0.76,0.99L123.06,164.99z"/>
	<path class="st8" d="M138.2,164.39l0.11,0c0.07-0.01,0.13-0.02,0.17-0.05c0.04-0.02,0.07-0.06,0.09-0.12l0.45-1.64
		c0.01-0.03,0.01-0.05,0.02-0.07c0-0.02,0.01-0.04,0.01-0.05c0-0.04-0.01-0.06-0.04-0.08c-0.03-0.01-0.06-0.02-0.12-0.02l-0.16,0.01
		v-0.05l0.04-0.01c0.03,0,0.11-0.02,0.24-0.05c0.13-0.03,0.22-0.04,0.28-0.06l0.05-0.01l0.03,0l0.02,0.01c0,0.01,0,0.01,0,0.02
		c0,0.01,0,0.01,0,0.02l-0.54,1.99c0,0.01,0,0.02-0.01,0.03c0,0.01,0,0.02,0,0.03c0,0.04,0.02,0.07,0.06,0.08s0.11,0.02,0.23,0.02
		v0.05h-0.93V164.39z"/>
	<path class="st8" d="M140.12,164.43c-0.04-0.04-0.05-0.08-0.05-0.13c0-0.05,0.02-0.09,0.05-0.13s0.08-0.05,0.13-0.05
		s0.09,0.02,0.13,0.05s0.05,0.08,0.05,0.13c0,0.05-0.02,0.09-0.05,0.13c-0.04,0.04-0.08,0.05-0.13,0.05S140.15,164.46,140.12,164.43
		z"/>
	<path class="st8" d="M140.74,164.45c-0.1-0.03-0.15-0.09-0.15-0.17c0-0.04,0.01-0.08,0.04-0.1c0.03-0.02,0.06-0.04,0.09-0.04
		c0.04,0,0.11,0.03,0.19,0.09c0.08,0.06,0.16,0.1,0.22,0.1c0.14,0,0.27-0.07,0.39-0.2c0.12-0.13,0.18-0.3,0.18-0.49
		c0-0.22-0.08-0.38-0.25-0.48c-0.09-0.06-0.26-0.11-0.48-0.15v-0.05l0.35-0.73h0.85l-0.08,0.24h-0.76l-0.14,0.29
		c0.24,0.04,0.43,0.12,0.56,0.25c0.13,0.13,0.19,0.3,0.19,0.52c0,0.24-0.1,0.46-0.29,0.66c-0.2,0.19-0.44,0.29-0.72,0.29
		C140.86,164.47,140.79,164.46,140.74,164.45z"/>
	<path class="st8" d="M144.07,162.27c-0.1,0.11-0.18,0.21-0.25,0.3c-0.11,0.16-0.2,0.35-0.27,0.57c-0.06,0.19-0.1,0.38-0.13,0.55
		c-0.02,0.17-0.04,0.32-0.04,0.44c0,0.18,0.01,0.33,0.03,0.45c0.02,0.12,0.06,0.27,0.13,0.46l-0.06,0.02c-0.12-0.2-0.2-0.4-0.25-0.6
		c-0.05-0.2-0.08-0.4-0.08-0.6c0-0.26,0.04-0.5,0.13-0.7c0.13-0.3,0.38-0.61,0.73-0.93L144.07,162.27z"/>
	<path class="st8" d="M144.08,164.24c0.03-0.02,0.05-0.03,0.08-0.03c0.01,0,0.03,0,0.04,0.01c0.01,0,0.03,0.01,0.04,0.02l0.06,0.03
		c0.01,0,0.01,0.01,0.02,0.01s0.01,0,0.02,0c0.03,0,0.05-0.01,0.06-0.02c0.01-0.01,0.05-0.06,0.11-0.14
		c0.04-0.05,0.13-0.18,0.27-0.39c0-0.01-0.01-0.07-0.04-0.17c-0.03-0.11-0.05-0.2-0.07-0.28s-0.04-0.13-0.06-0.15
		c-0.02-0.02-0.05-0.04-0.09-0.04c-0.01,0-0.04,0-0.09,0.02c-0.03,0.01-0.06,0.01-0.09,0.02l-0.01-0.05l0.18-0.06
		c0.05-0.02,0.09-0.03,0.13-0.04c0.04-0.01,0.07-0.01,0.1-0.01c0.05,0,0.08,0.01,0.1,0.04c0.04,0.04,0.06,0.13,0.09,0.26l0.03,0.18
		c0.1-0.15,0.17-0.25,0.23-0.31c0.05-0.05,0.09-0.1,0.14-0.12c0.04-0.03,0.08-0.04,0.12-0.04c0.04,0,0.07,0.01,0.09,0.02
		c0.04,0.02,0.06,0.06,0.06,0.11c0,0.04-0.01,0.07-0.03,0.09s-0.05,0.03-0.08,0.03c-0.01,0-0.02,0-0.03,0
		c-0.01,0-0.02-0.01-0.03-0.01l-0.04-0.02c-0.01-0.01-0.02-0.01-0.03-0.01c-0.01,0-0.02,0-0.02,0c-0.05,0-0.12,0.06-0.2,0.19
		s-0.13,0.2-0.13,0.22c0,0.02,0.01,0.07,0.03,0.16c0.02,0.09,0.04,0.18,0.07,0.28c0.02,0.09,0.04,0.16,0.06,0.19
		c0.02,0.06,0.05,0.09,0.08,0.09c0.03,0,0.06-0.02,0.09-0.05s0.08-0.09,0.14-0.17l0.04,0.03c-0.05,0.08-0.09,0.16-0.14,0.22
		c-0.09,0.11-0.18,0.17-0.27,0.17c-0.05,0-0.1-0.03-0.13-0.08c-0.02-0.03-0.04-0.08-0.05-0.15l-0.1-0.4l-0.33,0.44
		c-0.07,0.08-0.12,0.13-0.15,0.15c-0.04,0.03-0.08,0.04-0.13,0.04c-0.07,0-0.12-0.02-0.14-0.07c-0.01-0.02-0.02-0.05-0.02-0.08
		C144.04,164.29,144.06,164.26,144.08,164.24z"/>
	<path class="st8" d="M145.66,164.99c0.11-0.12,0.2-0.23,0.26-0.31c0.1-0.16,0.19-0.34,0.25-0.55c0.06-0.18,0.1-0.36,0.13-0.53
		s0.04-0.34,0.04-0.49c0-0.19-0.02-0.36-0.05-0.51c-0.03-0.15-0.07-0.27-0.11-0.36l0.06-0.02c0.1,0.17,0.18,0.35,0.24,0.56
		c0.06,0.21,0.09,0.42,0.09,0.63c0,0.24-0.04,0.46-0.11,0.64c-0.13,0.34-0.38,0.67-0.76,0.99L145.66,164.99z"/>
	<path class="st8" d="M212.19,162.27c-0.1,0.11-0.18,0.21-0.25,0.3c-0.11,0.16-0.2,0.35-0.27,0.57c-0.06,0.19-0.1,0.38-0.13,0.55
		c-0.02,0.17-0.04,0.32-0.04,0.44c0,0.18,0.01,0.33,0.03,0.45c0.02,0.12,0.06,0.27,0.13,0.46l-0.06,0.02c-0.12-0.2-0.2-0.4-0.25-0.6
		c-0.05-0.2-0.08-0.4-0.08-0.6c0-0.26,0.04-0.5,0.13-0.7c0.13-0.3,0.38-0.61,0.73-0.93L212.19,162.27z"/>
	<path class="st8" d="M212.2,164.89c0.02-0.03,0.05-0.04,0.09-0.04c0.03,0,0.05,0.01,0.07,0.02c0.02,0.01,0.04,0.03,0.06,0.04
		l0.02,0.02c0.01,0.01,0.01,0.01,0.02,0.01s0.02,0,0.03,0c0.05,0,0.14-0.07,0.26-0.21s0.18-0.24,0.18-0.3
		c0-0.06-0.02-0.18-0.06-0.36c-0.04-0.18-0.08-0.33-0.12-0.47c-0.05-0.19-0.1-0.33-0.14-0.39c-0.04-0.07-0.11-0.1-0.19-0.1
		c-0.01,0-0.02,0-0.03,0s-0.04,0-0.08,0.01v-0.05l0.44-0.09l0.03,0c0.03,0,0.08,0.12,0.16,0.37c0.07,0.22,0.11,0.38,0.13,0.48
		l0.07,0.39c0.11-0.19,0.2-0.34,0.25-0.44c0.1-0.2,0.16-0.34,0.16-0.42c0-0.02,0-0.04-0.01-0.05c-0.01-0.02-0.02-0.03-0.05-0.05
		l-0.03-0.01c-0.02-0.01-0.04-0.03-0.06-0.05c-0.02-0.02-0.04-0.06-0.04-0.1c0-0.03,0.01-0.06,0.03-0.08s0.05-0.03,0.1-0.03
		c0.05,0,0.1,0.02,0.13,0.05c0.03,0.03,0.05,0.09,0.05,0.16c0,0.12-0.06,0.3-0.19,0.56c-0.1,0.2-0.21,0.38-0.33,0.57
		c-0.15,0.23-0.28,0.41-0.39,0.53c-0.17,0.2-0.31,0.29-0.43,0.29c-0.04,0-0.08-0.01-0.12-0.04s-0.05-0.06-0.05-0.11
		C212.16,164.95,212.17,164.92,212.2,164.89z"/>
	<path class="st8" d="M213.78,164.99c0.11-0.12,0.2-0.23,0.26-0.31c0.1-0.16,0.19-0.34,0.25-0.55c0.06-0.18,0.1-0.36,0.13-0.53
		s0.04-0.34,0.04-0.49c0-0.19-0.02-0.36-0.05-0.51c-0.03-0.15-0.07-0.27-0.11-0.36l0.06-0.02c0.1,0.17,0.18,0.35,0.24,0.56
		c0.06,0.21,0.09,0.42,0.09,0.63c0,0.24-0.04,0.46-0.11,0.64c-0.13,0.34-0.38,0.67-0.76,0.99L213.78,164.99z"/>
	<path class="st8" d="M29.25,96.35c0.03,0.01,0.05,0.02,0.08,0.04l0.08,0.05c0.04,0.03,0.07,0.05,0.1,0.06
		c0.04,0.02,0.09,0.03,0.13,0.03c0.11,0,0.21-0.05,0.29-0.15c0.09-0.1,0.13-0.23,0.13-0.39c0-0.18-0.05-0.32-0.14-0.41
		c-0.1-0.09-0.23-0.14-0.41-0.14c-0.01,0-0.02,0-0.02,0c-0.01,0-0.02,0-0.04,0l0-0.05c0.29-0.04,0.5-0.11,0.62-0.22
		c0.12-0.11,0.18-0.21,0.18-0.32c0-0.07-0.02-0.14-0.06-0.21c-0.04-0.06-0.12-0.1-0.24-0.1c-0.07,0-0.13,0.02-0.2,0.05
		c-0.06,0.04-0.12,0.09-0.17,0.16l-0.05-0.02c0.06-0.12,0.14-0.2,0.23-0.26c0.09-0.05,0.19-0.08,0.3-0.08
		c0.14,0,0.26,0.04,0.35,0.11s0.13,0.18,0.13,0.3c0,0.13-0.05,0.23-0.16,0.32c-0.07,0.06-0.19,0.11-0.36,0.18v0.01
		c0.08,0.04,0.14,0.08,0.19,0.13c0.08,0.09,0.12,0.22,0.12,0.38c0,0.22-0.08,0.41-0.26,0.58c-0.18,0.17-0.4,0.26-0.66,0.26
		c-0.09,0-0.17-0.01-0.23-0.03c-0.1-0.03-0.15-0.09-0.15-0.18c0-0.03,0.01-0.06,0.03-0.08c0.02-0.02,0.06-0.04,0.11-0.04
		C29.2,96.34,29.22,96.34,29.25,96.35z"/>
	<path class="st8" d="M31.68,94.46c-0.1,0.11-0.18,0.21-0.25,0.3c-0.11,0.16-0.2,0.35-0.27,0.57c-0.06,0.19-0.1,0.38-0.13,0.55
		C31.02,96.06,31,96.2,31,96.32c0,0.18,0.01,0.33,0.03,0.45c0.02,0.12,0.06,0.27,0.13,0.46l-0.06,0.02c-0.12-0.2-0.2-0.4-0.25-0.6
		c-0.05-0.2-0.08-0.4-0.08-0.6c0-0.26,0.04-0.5,0.13-0.7c0.13-0.3,0.38-0.61,0.73-0.93L31.68,94.46z"/>
	<path class="st8" d="M31.69,97.08c0.02-0.03,0.05-0.04,0.09-0.04c0.03,0,0.05,0.01,0.07,0.02c0.02,0.01,0.04,0.03,0.06,0.04
		l0.02,0.02c0.01,0.01,0.01,0.01,0.02,0.01s0.02,0,0.03,0c0.05,0,0.14-0.07,0.26-0.21s0.18-0.24,0.18-0.3
		c0-0.06-0.02-0.18-0.06-0.36c-0.04-0.18-0.08-0.33-0.12-0.47c-0.05-0.19-0.1-0.33-0.14-0.39c-0.04-0.07-0.11-0.1-0.19-0.1
		c-0.01,0-0.02,0-0.03,0s-0.04,0-0.08,0.01v-0.05l0.44-0.09l0.03,0c0.03,0,0.08,0.12,0.16,0.37c0.07,0.22,0.11,0.38,0.13,0.48
		l0.07,0.39c0.11-0.19,0.2-0.34,0.25-0.44c0.1-0.2,0.16-0.34,0.16-0.42c0-0.02,0-0.04-0.01-0.05c-0.01-0.02-0.02-0.03-0.05-0.05
		l-0.03-0.01c-0.02-0.01-0.04-0.03-0.06-0.05c-0.02-0.02-0.04-0.06-0.04-0.1c0-0.03,0.01-0.06,0.03-0.08s0.05-0.03,0.1-0.03
		c0.05,0,0.1,0.02,0.13,0.05c0.03,0.03,0.05,0.09,0.05,0.16c0,0.12-0.06,0.3-0.19,0.56c-0.1,0.2-0.21,0.38-0.33,0.57
		c-0.15,0.23-0.28,0.41-0.39,0.53c-0.17,0.2-0.31,0.29-0.43,0.29c-0.04,0-0.08-0.01-0.12-0.04s-0.05-0.06-0.05-0.11
		C31.66,97.14,31.67,97.11,31.69,97.08z"/>
	<path class="st8" d="M33.27,97.18c0.11-0.12,0.2-0.23,0.26-0.31c0.1-0.16,0.19-0.34,0.25-0.55c0.06-0.18,0.1-0.36,0.13-0.53
		s0.04-0.34,0.04-0.49c0-0.19-0.02-0.36-0.05-0.51c-0.03-0.15-0.07-0.27-0.11-0.36l0.06-0.02c0.1,0.17,0.18,0.35,0.24,0.56
		c0.06,0.21,0.09,0.42,0.09,0.63c0,0.24-0.04,0.46-0.11,0.64c-0.13,0.34-0.38,0.67-0.76,0.99L33.27,97.18z"/>
	<line class="st5" x1="130.18" y1="0" x2="130.18" y2="185.88"/>
	<line class="st5" x1="152.67" y1="185.88" x2="152.67" y2="0"/>
	<path class="st8" d="M333.14,177.2h0.27v0.97h1.17v-0.97h0.26v2.19h-0.26v-0.98h-1.17v0.98h-0.27V177.2z"/>
	<path class="st8" d="M335.25,178.58c0-0.5,0.29-0.85,0.74-0.85c0.34,0,0.71,0.21,0.71,0.82v0.11h-1.19
		c0.01,0.35,0.22,0.54,0.51,0.54c0.2,0,0.35-0.08,0.41-0.26l0.24,0.07c-0.08,0.25-0.32,0.41-0.65,0.41
		C335.54,179.42,335.25,179.08,335.25,178.58z M336.44,178.43c0-0.28-0.18-0.48-0.45-0.48c-0.29,0-0.47,0.23-0.49,0.48H336.44z"/>
	<path class="st8" d="M337.03,177.3c0-0.09,0.08-0.17,0.18-0.17c0.1,0,0.18,0.08,0.18,0.17s-0.08,0.17-0.18,0.17
		C337.11,177.47,337.03,177.39,337.03,177.3z M337.08,177.74h0.25v1.64h-0.25V177.74z"/>
	<path class="st8" d="M337.78,179.71l0.2-0.14c0.07,0.09,0.17,0.25,0.47,0.25c0.27,0,0.46-0.12,0.46-0.4v-0.33h-0.02
		c-0.06,0.09-0.16,0.28-0.48,0.28c-0.4,0-0.7-0.29-0.7-0.8c0-0.5,0.29-0.83,0.7-0.83c0.32,0,0.42,0.2,0.48,0.28h0.03v-0.26h0.24
		v1.69c0,0.42-0.32,0.6-0.71,0.6C338.08,180.03,337.88,179.88,337.78,179.71z M338.91,178.55c0-0.35-0.16-0.6-0.47-0.6
		c-0.32,0-0.48,0.27-0.48,0.6c0,0.34,0.16,0.58,0.48,0.58C338.75,179.13,338.91,178.92,338.91,178.55z"/>
	<path class="st8" d="M339.87,179.39h-0.25v-2.19h0.25v0.8h0.02c0.08-0.17,0.22-0.28,0.48-0.28c0.33,0,0.56,0.2,0.56,0.62v1.04
		h-0.25v-1.03c0-0.26-0.14-0.41-0.38-0.41c-0.25,0-0.43,0.16-0.43,0.45V179.39z"/>
	<path class="st8" d="M342.1,177.96h-0.35v0.96c0,0.21,0.11,0.25,0.22,0.25c0.06,0,0.09-0.01,0.11-0.01l0.05,0.23
		c-0.03,0.01-0.09,0.03-0.19,0.03c-0.21,0-0.44-0.14-0.44-0.42v-1.03h-0.25v-0.21h0.25v-0.39h0.25v0.39h0.35V177.96z"/>
	<path class="st8" d="M343.25,178.57c0-0.51,0.3-0.85,0.74-0.85s0.74,0.34,0.74,0.85c0,0.51-0.3,0.85-0.74,0.85
		S343.25,179.08,343.25,178.57z M344.48,178.57c0-0.33-0.15-0.62-0.49-0.62c-0.34,0-0.49,0.29-0.49,0.62s0.15,0.62,0.49,0.62
		C344.33,179.19,344.48,178.9,344.48,178.57z"/>
	<path class="st8" d="M345.84,177.96h-0.37v1.43h-0.25v-1.43h-0.26v-0.21h0.26v-0.23c0-0.28,0.23-0.42,0.46-0.42
		c0.12,0,0.2,0.03,0.24,0.04l-0.07,0.22c-0.03-0.01-0.07-0.03-0.14-0.03c-0.17,0-0.24,0.08-0.24,0.25v0.17h0.37V177.96z"/>
	<path class="st8" d="M346.96,178.02c0-0.47,0.38-0.85,0.86-0.85c0.47,0,0.85,0.38,0.85,0.85c0,0.47-0.38,0.85-0.85,0.85
		C347.35,178.88,346.96,178.49,346.96,178.02z M348.47,178.02c0-0.36-0.29-0.65-0.65-0.65c-0.36,0-0.65,0.29-0.65,0.65
		c0,0.36,0.29,0.65,0.65,0.65C348.18,178.67,348.47,178.38,348.47,178.02z M347.52,177.62h0.4c0.1,0,0.24,0.08,0.24,0.25
		c0,0.11-0.06,0.19-0.13,0.23l0.16,0.31H348l-0.14-0.27h-0.17v0.27h-0.17V177.62z M347.85,178.01c0.05,0,0.12-0.05,0.12-0.14
		c0-0.1-0.07-0.12-0.11-0.12h-0.17v0.26H347.85z"/>
	<path class="st8" d="M333.21,181.7h1.32v0.23h-1.32V181.7z M333.21,182.33h1.32v0.23h-1.32V182.33z"/>
	<path class="st8" d="M336.18,182.99h-0.25v-2.19h0.25v0.8h0.02c0.08-0.17,0.22-0.28,0.48-0.28c0.33,0,0.56,0.2,0.56,0.62v1.04H337
		v-1.03c0-0.26-0.14-0.41-0.38-0.41c-0.25,0-0.43,0.16-0.43,0.45V182.99z"/>
	<path class="st8" d="M337.63,182.18c0-0.5,0.29-0.85,0.74-0.85c0.34,0,0.71,0.21,0.71,0.82v0.11h-1.19
		c0.01,0.35,0.22,0.54,0.51,0.54c0.2,0,0.35-0.08,0.41-0.26l0.24,0.07c-0.08,0.25-0.32,0.41-0.65,0.41
		C337.92,183.02,337.63,182.68,337.63,182.18z M338.82,182.03c0-0.28-0.18-0.48-0.45-0.48c-0.29,0-0.47,0.23-0.49,0.48H338.82z"/>
	<path class="st8" d="M339.4,180.9c0-0.09,0.08-0.17,0.18-0.17c0.1,0,0.18,0.08,0.18,0.17s-0.08,0.17-0.18,0.17
		C339.48,181.07,339.4,180.99,339.4,180.9z M339.45,181.34h0.25v1.64h-0.25V181.34z"/>
	<path class="st8" d="M340.15,183.31l0.2-0.14c0.07,0.09,0.17,0.25,0.47,0.25c0.27,0,0.46-0.12,0.46-0.4v-0.33h-0.02
		c-0.06,0.09-0.16,0.28-0.48,0.28c-0.4,0-0.7-0.29-0.7-0.8c0-0.5,0.29-0.83,0.7-0.83c0.32,0,0.42,0.2,0.48,0.28h0.03v-0.26h0.24
		v1.69c0,0.42-0.32,0.6-0.71,0.6C340.46,183.63,340.26,183.48,340.15,183.31z M341.29,182.15c0-0.35-0.16-0.6-0.47-0.6
		c-0.32,0-0.48,0.27-0.48,0.6c0,0.34,0.16,0.58,0.48,0.58C341.12,182.73,341.29,182.52,341.29,182.15z"/>
	<path class="st8" d="M342.24,182.99h-0.25v-2.19h0.25v0.8h0.02c0.08-0.17,0.22-0.28,0.48-0.28c0.33,0,0.56,0.2,0.56,0.62v1.04
		h-0.25v-1.03c0-0.26-0.14-0.41-0.38-0.41c-0.25,0-0.43,0.16-0.43,0.45V182.99z"/>
	<path class="st8" d="M344.48,181.56h-0.35v0.96c0,0.21,0.11,0.25,0.22,0.25c0.06,0,0.09-0.01,0.11-0.01l0.05,0.23
		c-0.04,0.01-0.09,0.03-0.19,0.03c-0.21,0-0.44-0.14-0.44-0.42v-1.03h-0.25v-0.21h0.25v-0.39h0.25v0.39h0.35V181.56z"/>
	<path class="st8" d="M345.62,182.17c0-0.51,0.3-0.85,0.74-0.85s0.74,0.34,0.74,0.85c0,0.51-0.3,0.85-0.74,0.85
		S345.62,182.68,345.62,182.17z M346.86,182.17c0-0.33-0.15-0.62-0.49-0.62c-0.34,0-0.49,0.29-0.49,0.62s0.15,0.62,0.49,0.62
		C346.7,182.79,346.86,182.5,346.86,182.17z"/>
	<path class="st8" d="M348.22,181.56h-0.37v1.43h-0.25v-1.43h-0.26v-0.21h0.26v-0.23c0-0.28,0.23-0.42,0.46-0.42
		c0.12,0,0.2,0.03,0.24,0.04l-0.07,0.22c-0.03-0.01-0.07-0.03-0.14-0.03c-0.17,0-0.24,0.08-0.24,0.25v0.17h0.37V181.56z"/>
	<path class="st8" d="M350.13,181.56h-0.35v0.96c0,0.21,0.11,0.25,0.22,0.25c0.06,0,0.09-0.01,0.11-0.01l0.05,0.23
		c-0.04,0.01-0.09,0.03-0.19,0.03c-0.21,0-0.44-0.14-0.44-0.42v-1.03h-0.25v-0.21h0.25v-0.39h0.25v0.39h0.35V181.56z"/>
	<path class="st8" d="M350.79,182.99h-0.25v-2.19h0.25v0.8h0.02c0.08-0.17,0.22-0.28,0.48-0.28c0.33,0,0.56,0.2,0.56,0.62v1.04
		h-0.25v-1.03c0-0.26-0.14-0.41-0.38-0.41c-0.25,0-0.43,0.16-0.43,0.45V182.99z"/>
	<path class="st8" d="M352.23,182.18c0-0.5,0.29-0.85,0.74-0.85c0.34,0,0.71,0.21,0.71,0.82v0.11h-1.19
		c0.01,0.35,0.22,0.54,0.51,0.54c0.2,0,0.35-0.08,0.41-0.26l0.24,0.07c-0.08,0.25-0.32,0.41-0.65,0.41
		C352.52,183.02,352.23,182.68,352.23,182.18z M353.42,182.03c0-0.28-0.18-0.48-0.45-0.48c-0.29,0-0.47,0.23-0.49,0.48H353.42z"/>
	<path class="st8" d="M354.85,180.9c0-0.09,0.08-0.17,0.18-0.17c0.1,0,0.18,0.08,0.18,0.17s-0.08,0.17-0.18,0.17
		C354.93,181.07,354.85,180.99,354.85,180.9z M354.9,181.34h0.25v1.64h-0.25V181.34z"/>
	<path class="st8" d="M355.84,180.99c0,0.17-0.1,0.4-0.27,0.54l-0.14-0.11c0.09-0.13,0.17-0.26,0.17-0.42v-0.2h0.24V180.99z"/>
	<path class="st8" d="M356.87,181.78c-0.04-0.11-0.13-0.24-0.35-0.24c-0.2,0-0.35,0.1-0.35,0.24c0,0.13,0.09,0.19,0.28,0.24
		l0.24,0.06c0.29,0.07,0.44,0.22,0.44,0.44c0,0.28-0.26,0.49-0.64,0.49c-0.34,0-0.57-0.15-0.62-0.43l0.24-0.06
		c0.04,0.18,0.17,0.27,0.38,0.27c0.24,0,0.38-0.12,0.38-0.26c0-0.11-0.08-0.19-0.24-0.23l-0.27-0.06c-0.3-0.07-0.44-0.22-0.44-0.45
		c0-0.28,0.26-0.47,0.6-0.47c0.33,0,0.5,0.16,0.58,0.39L356.87,181.78z"/>
	<path class="st8" d="M358.27,182.17c0-0.52,0.29-0.85,0.7-0.85c0.32,0,0.42,0.2,0.47,0.28h0.02v-0.81h0.25v2.19h-0.24v-0.25h-0.03
		c-0.06,0.09-0.16,0.29-0.48,0.29C358.56,183.02,358.27,182.69,358.27,182.17z M359.47,182.16c0-0.37-0.16-0.62-0.47-0.62
		c-0.32,0-0.48,0.27-0.48,0.62c0,0.35,0.16,0.63,0.48,0.63C359.31,182.79,359.47,182.54,359.47,182.16z"/>
	<path class="st8" d="M360.13,182.17c0-0.51,0.3-0.85,0.74-0.85s0.74,0.34,0.74,0.85c0,0.51-0.3,0.85-0.74,0.85
		S360.13,182.68,360.13,182.17z M361.37,182.17c0-0.33-0.15-0.62-0.49-0.62c-0.34,0-0.49,0.29-0.49,0.62s0.15,0.62,0.49,0.62
		C361.22,182.79,361.37,182.5,361.37,182.17z"/>
	<path class="st8" d="M362.72,181.56h-0.35v0.96c0,0.21,0.11,0.25,0.22,0.25c0.06,0,0.09-0.01,0.11-0.01l0.05,0.23
		c-0.04,0.01-0.09,0.03-0.19,0.03c-0.21,0-0.44-0.14-0.44-0.42v-1.03h-0.25v-0.21h0.25v-0.39h0.25v0.39h0.35V181.56z"/>
	<path class="st8" d="M232.55,163.68c0.08-0.15,0.19-0.26,0.33-0.35c0.14-0.09,0.28-0.14,0.42-0.14c0.14,0,0.25,0.05,0.33,0.14
		c0.09,0.09,0.13,0.22,0.13,0.36c0,0.21-0.08,0.41-0.25,0.58c-0.17,0.17-0.36,0.26-0.57,0.26c-0.19,0-0.34-0.07-0.47-0.21
		c-0.12-0.14-0.18-0.33-0.18-0.55c0-0.39,0.14-0.73,0.42-1.04c0.28-0.31,0.6-0.46,0.95-0.46c0.13,0,0.26,0.02,0.39,0.06l-0.22,0.22
		c-0.13-0.08-0.27-0.12-0.42-0.12c-0.22,0-0.4,0.09-0.55,0.28c-0.09,0.11-0.16,0.26-0.23,0.44c-0.06,0.18-0.09,0.35-0.09,0.5V163.68
		z M232.57,163.85c0.07,0.36,0.25,0.54,0.53,0.54c0.12,0,0.23-0.05,0.31-0.14c0.08-0.09,0.13-0.2,0.13-0.34
		c0-0.16-0.04-0.28-0.12-0.39c-0.08-0.1-0.19-0.15-0.31-0.15C232.84,163.38,232.66,163.53,232.57,163.85z"/>
	<line class="st5" x1="191.51" y1="185.87" x2="191.51" y2="0"/>
	<path class="st8" d="M192.09,164.39l0.11,0c0.07-0.01,0.13-0.02,0.17-0.05c0.04-0.02,0.07-0.06,0.09-0.12l0.45-1.64
		c0.01-0.03,0.01-0.05,0.02-0.07c0-0.02,0.01-0.04,0.01-0.05c0-0.04-0.01-0.06-0.04-0.08c-0.03-0.01-0.06-0.02-0.12-0.02l-0.16,0.01
		v-0.05l0.04-0.01c0.03,0,0.11-0.02,0.24-0.05c0.13-0.03,0.22-0.04,0.28-0.06l0.05-0.01l0.03,0l0.02,0.01c0,0.01,0,0.01,0,0.02
		c0,0.01,0,0.01,0,0.02l-0.54,1.99c0,0.01,0,0.02-0.01,0.03c0,0.01,0,0.02,0,0.03c0,0.04,0.02,0.07,0.06,0.08s0.11,0.02,0.23,0.02
		v0.05h-0.93V164.39z"/>
	<path class="st8" d="M194.41,162.26h0.16l-0.84,2.24h-0.16L194.41,162.26z"/>
	<path class="st8" d="M193.26,166.26c-0.1,0.11-0.18,0.21-0.25,0.3c-0.11,0.16-0.2,0.35-0.27,0.57c-0.06,0.19-0.1,0.38-0.13,0.55
		c-0.02,0.17-0.04,0.32-0.04,0.44c0,0.18,0.01,0.33,0.03,0.45c0.02,0.12,0.06,0.27,0.13,0.46l-0.06,0.02c-0.12-0.2-0.2-0.4-0.25-0.6
		c-0.05-0.2-0.08-0.4-0.08-0.6c0-0.26,0.04-0.5,0.13-0.7c0.13-0.3,0.38-0.61,0.73-0.93L193.26,166.26z"/>
	<path class="st8" d="M193.27,168.88c0.02-0.03,0.05-0.04,0.09-0.04c0.03,0,0.05,0.01,0.07,0.02c0.02,0.01,0.04,0.03,0.06,0.04
		l0.02,0.02c0.01,0.01,0.01,0.01,0.02,0.01s0.02,0,0.03,0c0.05,0,0.14-0.07,0.26-0.21s0.18-0.24,0.18-0.3
		c0-0.06-0.02-0.18-0.06-0.36c-0.04-0.18-0.08-0.33-0.12-0.47c-0.05-0.19-0.1-0.33-0.14-0.39c-0.04-0.07-0.11-0.1-0.19-0.1
		c-0.01,0-0.02,0-0.03,0s-0.04,0-0.08,0.01v-0.05l0.44-0.09l0.03,0c0.03,0,0.08,0.12,0.16,0.37c0.07,0.22,0.11,0.38,0.13,0.48
		l0.07,0.39c0.11-0.19,0.2-0.34,0.25-0.44c0.1-0.2,0.16-0.34,0.16-0.42c0-0.02,0-0.04-0.01-0.05c-0.01-0.02-0.02-0.03-0.05-0.05
		l-0.03-0.01c-0.02-0.01-0.04-0.03-0.06-0.05c-0.02-0.02-0.04-0.06-0.04-0.1c0-0.03,0.01-0.06,0.03-0.08s0.05-0.03,0.1-0.03
		c0.05,0,0.1,0.02,0.13,0.05c0.03,0.03,0.05,0.09,0.05,0.16c0,0.12-0.06,0.3-0.19,0.56c-0.1,0.2-0.21,0.38-0.33,0.57
		c-0.15,0.23-0.28,0.41-0.39,0.53c-0.17,0.2-0.31,0.29-0.43,0.29c-0.04,0-0.08-0.01-0.12-0.04s-0.05-0.06-0.05-0.11
		C193.23,168.93,193.25,168.9,193.27,168.88z"/>
	<path class="st8" d="M194.85,168.98c0.11-0.12,0.2-0.23,0.26-0.31c0.1-0.16,0.19-0.34,0.25-0.55c0.06-0.18,0.1-0.36,0.13-0.53
		s0.04-0.34,0.04-0.49c0-0.19-0.02-0.36-0.05-0.51c-0.03-0.15-0.07-0.27-0.11-0.36l0.06-0.02c0.1,0.17,0.18,0.35,0.24,0.56
		c0.06,0.21,0.09,0.42,0.09,0.63c0,0.24-0.04,0.46-0.11,0.64c-0.13,0.34-0.38,0.67-0.76,0.99L194.85,168.98z"/>
	<path class="st8" d="M194.94,163.68c0.08-0.15,0.19-0.26,0.33-0.35c0.14-0.09,0.28-0.14,0.42-0.14c0.14,0,0.25,0.05,0.33,0.14
		c0.09,0.09,0.13,0.22,0.13,0.36c0,0.21-0.08,0.41-0.25,0.58c-0.17,0.17-0.36,0.26-0.57,0.26c-0.19,0-0.34-0.07-0.47-0.21
		c-0.12-0.14-0.18-0.33-0.18-0.55c0-0.39,0.14-0.73,0.42-1.04c0.28-0.31,0.6-0.46,0.95-0.46c0.13,0,0.26,0.02,0.39,0.06l-0.22,0.22
		c-0.13-0.08-0.27-0.12-0.42-0.12c-0.22,0-0.4,0.09-0.55,0.28c-0.09,0.11-0.16,0.26-0.23,0.44c-0.06,0.18-0.09,0.35-0.09,0.5V163.68
		z M194.96,163.85c0.07,0.36,0.25,0.54,0.53,0.54c0.12,0,0.23-0.05,0.31-0.14c0.08-0.09,0.13-0.2,0.13-0.34
		c0-0.16-0.04-0.28-0.12-0.39c-0.08-0.1-0.19-0.15-0.31-0.15C195.23,163.38,195.05,163.53,194.96,163.85z"/>
	<line class="st4" x1="44.62" y1="185.88" x2="44.62" y2="0"/>
	<path class="st9" d="M152.67,27.41V0h11.5v27.8c0,4.55,2.34,7.6,7.99,7.6c5.33,0,7.86-3.25,7.86-7.79V0h11.5v27.41
		c0,10.72-6.43,17.21-19.35,17.21C159.16,44.62,152.67,38.26,152.67,27.41z"/>
	<path class="st9" d="M191.51,158.47v27.41h-11.5v-27.8c0-4.55-2.34-7.6-7.99-7.6c-5.33,0-7.86,3.25-7.86,7.79v27.6h-11.5v-27.41
		c0-10.72,6.43-17.21,19.35-17.21C185.01,141.26,191.51,147.63,191.51,158.47z"/>
	<path class="st9" d="M27.41,113.6H0v-11.5h27.8c4.55,0,7.6-2.34,7.6-7.99c0-5.33-3.25-7.86-7.79-7.86H0v-11.5h27.41
		c10.72,0,17.21,6.43,17.21,19.35C44.62,107.1,38.25,113.6,27.41,113.6z"/>
	<path class="st9" d="M339.46,74.76h27.41v11.5h-27.8c-4.55,0-7.6,2.34-7.6,7.99c0,5.33,3.25,7.86,7.79,7.86h27.6v11.5h-27.41
		c-10.72,0-17.21-6.43-17.21-19.35C322.25,81.25,328.61,74.76,339.46,74.76z"/>
	<line class="st10" x1="0" y1="44.62" x2="364.75" y2="44.62"/>
	<line class="st10" x1="0" y1="141.26" x2="366.83" y2="141.26"/>
</g>
</svg>
