<svg id="Layer_1" data-name="Layer 1" xmlns="http://www.w3.org/2000/svg" xmlns:xlink="http://www.w3.org/1999/xlink" viewBox="0 0 500 500"><defs><style>.cls-1{fill:none;}.cls-2{clip-path:url(#clip-path);}.cls-3{fill:#ccc;}.cls-4{fill:#a6a6a6;}.cls-5{fill:#fff;}</style><clipPath id="clip-path"><rect class="cls-1" x="97" y="97" width="306" height="306"/></clipPath></defs><rect x="0.5" y="-0.5" width="500" height="500"/><g id="U_Cube_White"><g class="cls-2"><g class="cls-2"><path class="cls-3" d="M375.74,306.72V174.23L261,108V158.8l45,26a2.53,2.53,0,0,1,0,4.35L252.52,220a5,5,0,0,1-5,0l-53.43-30.85a2.53,2.53,0,0,1,0-4.36l45-25.95V108L124.26,174.23V306.72l44-25.41V229.39a2.53,2.53,0,0,1,3.77-2.17l53.44,30.86a5,5,0,0,1,2.51,4.36v61.7a2.53,2.53,0,0,1-3.75,2.19l-45-26-44,25.4L250,392l114.74-66.25-44-25.4-45,25.95a2.53,2.53,0,0,1-3.76-2.18V262.43a5,5,0,0,1,2.52-4.36L328,227.22a2.53,2.53,0,0,1,3.77,2.18v51.91Z"/><path class="cls-4" d="M250,392l114.74-66.25-44-25.4-45,25.95a2.53,2.53,0,0,1-3.76-2.18V262.43a5,5,0,0,1,2.52-4.36L328,227.22a2.53,2.53,0,0,1,3.77,2.18v51.91l44,25.41V174.23L250,246.82Z"/><path class="cls-5" d="M261,108V158.8l45,26a2.53,2.53,0,0,1,0,4.35L252.52,220a5,5,0,0,1-5,0L194,189.11a2.54,2.54,0,0,1,0-4.36l45-25.95V108L124.26,174.23,250,246.82l125.74-72.59Z"/><path class="cls-3" d="M224.24,326.33l-45-26-44,25.42L250,392V246.82L124.26,174.23V306.72l44-25.41V229.39a2.53,2.53,0,0,1,3.77-2.17l53.44,30.86a5,5,0,0,1,2.51,4.36v61.7a2.53,2.53,0,0,1-3.75,2.19"/></g></g></g></svg>